<svg xmlns="http://www.w3.org/2000/svg" xmlns:xlink="http://www.w3.org/1999/xlink" width="500" zoomAndPan="magnify" viewBox="0 0 500 375" height="500" preserveAspectRatio="xMidYMid meet" version="1.0"><defs><clipPath id="c247278fe7"><path d="M 34.085938 37.5 L 337.835938 37.5 L 337.835938 341 L 34.085938 341 Z M 34.085938 37.5 " clip-rule="nonzero"/></clipPath></defs><g clip-path="url(#c247278fe7)"></g><path fill="#ffffff" d="M 139.570312 154.242188 C 146.121094 154.21875 152.671875 154.191406 159.421875 154.167969 C 161.484375 154.15625 163.542969 154.144531 165.667969 154.136719 C 168.203125 154.128906 168.203125 154.128906 169.394531 154.128906 C 170.21875 154.128906 171.042969 154.125 171.863281 154.117188 C 178.679688 154.066406 184.925781 154.226562 190.417969 158.847656 C 192.507812 161 194.132812 163.816406 194.976562 166.6875 C 195.066406 166.976562 195.152344 167.265625 195.246094 167.566406 C 197.023438 174.683594 196.304688 183.097656 192.535156 189.445312 C 189.800781 193.480469 185.65625 195.378906 181.007812 196.375 C 178.425781 196.851562 175.796875 196.757812 173.179688 196.726562 C 172.582031 196.726562 171.984375 196.722656 171.386719 196.722656 C 169.835938 196.71875 168.28125 196.707031 166.726562 196.695312 C 164.851562 196.679688 162.976562 196.675781 161.101562 196.667969 C 158.269531 196.65625 155.4375 196.632812 152.605469 196.613281 C 152.605469 204.238281 152.605469 211.867188 152.605469 219.722656 C 148.304688 219.722656 144.003906 219.722656 139.570312 219.722656 C 139.570312 198.113281 139.570312 176.503906 139.570312 154.242188 Z M 139.570312 154.242188 " fill-opacity="1" fill-rule="nonzero"/><path fill="#ffffff" d="M 62.828125 154.242188 C 67.230469 154.242188 71.628906 154.242188 76.164062 154.242188 C 76.167969 155.496094 76.171875 156.746094 76.175781 158.039062 C 76.191406 162.1875 76.210938 166.335938 76.230469 170.484375 C 76.246094 173 76.257812 175.511719 76.265625 178.027344 C 76.273438 180.21875 76.28125 182.414062 76.296875 184.605469 C 76.300781 185.765625 76.308594 186.925781 76.308594 188.085938 C 76.3125 189.179688 76.316406 190.273438 76.328125 191.371094 C 76.332031 191.957031 76.328125 192.542969 76.328125 193.128906 C 76.371094 197.132812 76.859375 200.605469 79.585938 203.644531 C 83.617188 207.539062 90.652344 206.78125 95.78125 206.765625 C 96.902344 206.761719 98.019531 206.765625 99.140625 206.769531 C 107.257812 206.945312 107.257812 206.945312 114.46875 203.652344 C 117.179688 200.878906 117.140625 197.132812 117.144531 193.496094 C 117.148438 193.066406 117.152344 192.636719 117.15625 192.207031 C 117.164062 191.050781 117.167969 189.890625 117.171875 188.730469 C 117.175781 187.519531 117.183594 186.304688 117.191406 185.089844 C 117.207031 182.796875 117.214844 180.5 117.226562 178.207031 C 117.238281 175.59375 117.253906 172.980469 117.265625 170.363281 C 117.296875 164.992188 117.324219 159.617188 117.347656 154.242188 C 121.746094 154.242188 126.148438 154.242188 130.679688 154.242188 C 130.707031 159.929688 130.730469 165.617188 130.742188 171.304688 C 130.75 173.945312 130.757812 176.585938 130.769531 179.226562 C 130.78125 181.535156 130.789062 183.839844 130.792969 186.144531 C 130.792969 187.363281 130.796875 188.578125 130.804688 189.796875 C 130.867188 198.609375 130.523438 207.027344 124.386719 213.953125 C 118.679688 219.566406 110.289062 220.121094 102.726562 220.097656 C 102.253906 220.097656 101.78125 220.101562 101.308594 220.101562 C 100.332031 220.101562 99.351562 220.101562 98.371094 220.097656 C 97.132812 220.09375 95.894531 220.097656 94.652344 220.097656 C 93.683594 220.101562 92.710938 220.101562 91.738281 220.097656 C 91.285156 220.097656 90.828125 220.097656 90.371094 220.101562 C 82.984375 220.117188 74.917969 219.308594 69.378906 213.882812 C 62.25 206.167969 62.679688 194.96875 62.738281 185.085938 C 62.746094 183.996094 62.746094 182.90625 62.746094 181.816406 C 62.75 179.765625 62.753906 177.714844 62.765625 175.664062 C 62.773438 173.324219 62.78125 170.984375 62.785156 168.644531 C 62.792969 163.84375 62.808594 159.042969 62.828125 154.242188 Z M 62.828125 154.242188 " fill-opacity="1" fill-rule="nonzero"/><path fill="#ffffff" d="M 238.832031 154.242188 C 240.957031 154.113281 243.085938 154.027344 245.21875 153.964844 C 245.941406 153.941406 246.664062 153.90625 247.386719 153.863281 C 253.210938 153.519531 253.210938 153.519531 254.898438 154.707031 C 256.023438 155.871094 256.777344 157.214844 257.484375 158.664062 C 257.882812 159.457031 258.375 160.148438 258.902344 160.859375 C 259.210938 161.300781 259.519531 161.742188 259.832031 162.1875 C 260.183594 162.6875 260.535156 163.191406 260.886719 163.695312 C 261.148438 164.070312 261.148438 164.070312 261.417969 164.453125 C 261.929688 165.1875 262.445312 165.921875 262.960938 166.660156 C 263.300781 167.144531 263.640625 167.628906 263.980469 168.113281 C 264.148438 168.351562 264.3125 168.589844 264.488281 168.839844 C 265.441406 170.203125 266.394531 171.566406 267.34375 172.933594 C 267.554688 173.238281 267.765625 173.542969 267.980469 173.855469 C 268.386719 174.441406 268.792969 175.027344 269.199219 175.617188 C 270.199219 177.054688 271.214844 178.472656 272.296875 179.851562 C 272.609375 180.316406 272.609375 180.316406 272.609375 180.910156 C 273.914062 180.964844 275.105469 180.992188 276.152344 180.136719 C 276.691406 179.472656 277.164062 178.792969 277.628906 178.074219 C 277.800781 177.820312 277.976562 177.566406 278.160156 177.304688 C 278.6875 176.535156 279.203125 175.757812 279.71875 174.984375 C 280.007812 174.566406 280.292969 174.148438 280.585938 173.730469 C 281.117188 172.960938 281.648438 172.191406 282.175781 171.414062 C 283.019531 170.175781 283.886719 168.949219 284.757812 167.722656 C 285.890625 166.121094 287.015625 164.511719 288.128906 162.890625 C 289.425781 160.992188 290.734375 159.105469 292.054688 157.222656 C 292.234375 156.960938 292.417969 156.699219 292.605469 156.429688 C 292.777344 156.1875 292.945312 155.945312 293.121094 155.695312 C 293.273438 155.480469 293.421875 155.261719 293.578125 155.039062 C 293.941406 154.539062 293.941406 154.539062 294.238281 154.242188 C 294.703125 154.214844 295.167969 154.207031 295.632812 154.207031 C 295.929688 154.207031 296.226562 154.207031 296.53125 154.207031 C 296.851562 154.210938 297.175781 154.210938 297.507812 154.210938 C 298 154.214844 298 154.214844 298.503906 154.214844 C 299.558594 154.214844 300.609375 154.21875 301.664062 154.222656 C 302.375 154.226562 303.089844 154.226562 303.800781 154.226562 C 305.550781 154.230469 307.300781 154.234375 309.054688 154.242188 C 308.140625 155.933594 307.179688 157.558594 306.09375 159.144531 C 305.957031 159.34375 305.816406 159.546875 305.675781 159.757812 C 305.234375 160.40625 304.792969 161.054688 304.347656 161.703125 C 304.042969 162.15625 303.734375 162.609375 303.425781 163.0625 C 302.671875 164.171875 301.917969 165.28125 301.164062 166.386719 C 300.59375 167.222656 300.023438 168.058594 299.457031 168.894531 C 298.410156 170.429688 297.363281 171.964844 296.3125 173.5 C 296.148438 173.742188 295.984375 173.980469 295.816406 174.226562 C 295.011719 175.402344 294.207031 176.578125 293.402344 177.753906 C 292.765625 178.6875 292.125 179.621094 291.488281 180.554688 C 289.523438 183.441406 287.527344 186.308594 285.507812 189.15625 C 285.019531 189.84375 284.535156 190.53125 284.050781 191.222656 C 283.886719 191.453125 283.722656 191.6875 283.554688 191.925781 C 283.238281 192.375 282.921875 192.824219 282.605469 193.273438 C 281.53125 194.800781 281.53125 194.800781 281.199219 195.132812 C 281.164062 195.898438 281.144531 196.65625 281.140625 197.421875 C 281.136719 197.664062 281.132812 197.902344 281.132812 198.148438 C 281.121094 198.945312 281.113281 199.742188 281.105469 200.539062 C 281.101562 201.089844 281.09375 201.640625 281.089844 202.191406 C 281.074219 203.644531 281.058594 205.097656 281.042969 206.550781 C 281.027344 208.292969 281.007812 210.035156 280.988281 211.777344 C 280.957031 214.425781 280.933594 217.074219 280.90625 219.722656 C 276.503906 219.722656 272.105469 219.722656 267.570312 219.722656 C 267.585938 217.980469 267.605469 216.234375 267.621094 214.4375 C 267.625 213.320312 267.625 212.207031 267.625 211.09375 C 267.625 209.332031 267.625 207.566406 267.648438 205.804688 C 267.664062 204.378906 267.667969 202.957031 267.660156 201.53125 C 267.660156 200.992188 267.664062 200.453125 267.675781 199.914062 C 267.75 196.015625 267.003906 193.746094 264.394531 190.820312 C 263.898438 190.257812 263.46875 189.652344 263.042969 189.03125 C 262.847656 188.75 262.847656 188.75 262.644531 188.464844 C 262.515625 188.28125 262.390625 188.097656 262.257812 187.910156 C 261.957031 187.484375 261.65625 187.054688 261.355469 186.628906 C 261.132812 186.3125 261.132812 186.3125 260.90625 185.988281 C 260.324219 185.160156 259.742188 184.335938 259.15625 183.507812 C 257.53125 181.207031 255.914062 178.902344 254.300781 176.59375 C 253.195312 175.019531 252.089844 173.445312 250.980469 171.871094 C 249.351562 169.570312 247.734375 167.261719 246.117188 164.949219 C 245.394531 163.914062 244.667969 162.882812 243.941406 161.847656 C 243.757812 161.589844 243.574219 161.328125 243.386719 161.0625 C 243.042969 160.570312 242.695312 160.082031 242.351562 159.59375 C 241.121094 157.84375 239.964844 156.054688 238.832031 154.242188 Z M 238.832031 154.242188 " fill-opacity="1" fill-rule="nonzero"/><path fill="#ffffff" d="M 201.792969 154.242188 C 205.898438 154.242188 210.007812 154.242188 214.238281 154.242188 C 214.242188 155.550781 214.246094 156.863281 214.25 158.210938 C 214.265625 162.542969 214.285156 166.878906 214.308594 171.210938 C 214.320312 173.835938 214.332031 176.464844 214.339844 179.089844 C 214.347656 181.378906 214.355469 183.671875 214.371094 185.960938 C 214.378906 187.171875 214.382812 188.386719 214.386719 189.597656 C 214.386719 190.738281 214.394531 191.882812 214.402344 193.027344 C 214.40625 193.441406 214.40625 193.859375 214.40625 194.277344 C 214.402344 197.894531 214.605469 201.292969 217.199219 204.019531 C 219.527344 206.226562 222.175781 206.433594 225.207031 206.453125 C 225.503906 206.453125 225.804688 206.457031 226.109375 206.460938 C 227.09375 206.46875 228.074219 206.476562 229.058594 206.484375 C 229.742188 206.492188 230.421875 206.496094 231.105469 206.503906 C 232.898438 206.519531 234.691406 206.535156 236.488281 206.546875 C 238.316406 206.5625 240.148438 206.578125 241.980469 206.597656 C 245.574219 206.628906 249.164062 206.65625 252.757812 206.6875 C 252.757812 210.988281 252.757812 215.292969 252.757812 219.722656 C 248.5625 219.738281 244.371094 219.75 240.175781 219.753906 C 238.230469 219.757812 236.28125 219.761719 234.335938 219.769531 C 232.453125 219.773438 230.574219 219.777344 228.691406 219.78125 C 227.976562 219.78125 227.261719 219.785156 226.542969 219.785156 C 225.539062 219.789062 224.53125 219.792969 223.527344 219.792969 C 223.230469 219.792969 222.9375 219.796875 222.636719 219.796875 C 217.261719 219.78125 211.917969 218.183594 207.941406 214.464844 C 202.621094 208.808594 201.683594 200.957031 201.726562 193.53125 C 201.726562 193.097656 201.726562 192.664062 201.726562 192.230469 C 201.726562 191.074219 201.730469 189.917969 201.734375 188.757812 C 201.738281 187.542969 201.738281 186.324219 201.738281 185.109375 C 201.738281 182.8125 201.746094 180.515625 201.75 178.222656 C 201.757812 175.605469 201.761719 172.988281 201.761719 170.371094 C 201.769531 164.996094 201.78125 159.617188 201.792969 154.242188 Z M 201.792969 154.242188 " fill-opacity="1" fill-rule="nonzero"/></svg>